<svg width="154" height="55" viewBox="0 0 154 55" fill="none" xmlns="http://www.w3.org/2000/svg">
    <rect width="4.89394" height="19.4911" rx="2.44697" transform="matrix(0.960202 0.279307 -0.294421 0.955676 35.0617 10)" fill="#648AD4" fill-opacity="0.69"/>
    <rect width="4.81499" height="32.4588" rx="2.4075" transform="matrix(0.960202 0.279307 -0.294421 0.955676 44.3766 16.6767)" fill="#DE6AE8" fill-opacity="0.69"/>
    <rect width="5.02706" height="17.1844" rx="2.51353" transform="matrix(0.960202 0.279307 -0.294421 0.955676 27.9695 30.9203)" fill="#58D35D" fill-opacity="0.69"/>
    <rect width="5.23682" height="32.4588" rx="2.61841" transform="matrix(0.960202 0.279307 -0.294421 0.955676 20.5566 16.2316)" fill="#FE8888" fill-opacity="0.69"/>
    <path d="M9.32 21.4V27.08H18.48V32.36H9.32V38.52H19.68V44H2.48V15.92H19.68V21.4H9.32ZM34.1606 37.6L39.0006 21.68H46.2806L38.3606 44H29.9206L22.0006 21.68H29.3206L34.1606 37.6ZM70.1997 32.48C70.1997 33.12 70.1597 33.7867 70.0797 34.48H54.5997C54.7064 35.8667 55.1464 36.9333 55.9197 37.68C56.7197 38.4 57.693 38.76 58.8397 38.76C60.5464 38.76 61.733 38.04 62.3997 36.6H69.6797C69.3064 38.0667 68.6264 39.3867 67.6397 40.56C66.6797 41.7333 65.4664 42.6533 63.9997 43.32C62.533 43.9867 60.893 44.32 59.0797 44.32C56.893 44.32 54.9464 43.8533 53.2397 42.92C51.533 41.9867 50.1997 40.6533 49.2397 38.92C48.2797 37.1867 47.7997 35.16 47.7997 32.84C47.7997 30.52 48.2664 28.4933 49.1997 26.76C50.1597 25.0267 51.493 23.6933 53.1997 22.76C54.9064 21.8267 56.8664 21.36 59.0797 21.36C61.2397 21.36 63.1597 21.8133 64.8397 22.72C66.5197 23.6267 67.8264 24.92 68.7597 26.6C69.7197 28.28 70.1997 30.24 70.1997 32.48ZM63.1997 30.68C63.1997 29.5067 62.7997 28.5733 61.9997 27.88C61.1997 27.1867 60.1997 26.84 58.9997 26.84C57.853 26.84 56.8797 27.1733 56.0797 27.84C55.3064 28.5067 54.8264 29.4533 54.6397 30.68H63.1997ZM87.4081 21.44C90.0215 21.44 92.1015 22.2933 93.6481 24C95.2215 25.68 96.0081 28 96.0081 30.96V44H89.2081V31.88C89.2081 30.3867 88.8215 29.2267 88.0481 28.4C87.2748 27.5733 86.2348 27.16 84.9281 27.16C83.6215 27.16 82.5815 27.5733 81.8081 28.4C81.0348 29.2267 80.6481 30.3867 80.6481 31.88V44H73.8081V21.68H80.6481V24.64C81.3415 23.6533 82.2748 22.88 83.4481 22.32C84.6215 21.7333 85.9415 21.44 87.4081 21.44ZM113.201 38.2V44H109.721C107.241 44 105.308 43.4 103.921 42.2C102.535 40.9733 101.841 38.9867 101.841 36.24V27.36H99.1213V21.68H101.841V16.24H108.681V21.68H113.161V27.36H108.681V36.32C108.681 36.9867 108.841 37.4667 109.161 37.76C109.481 38.0533 110.015 38.2 110.761 38.2H113.201ZM123.851 14.4V44H117.011V14.4H123.851ZM151.608 21.68L137.608 54.6H130.248L135.368 43.24L126.288 21.68H133.928L139.088 35.64L144.208 21.68H151.608Z" fill="black"/>
    </svg>
    